<svg xmlns="http://www.w3.org/2000/svg" viewBox="0 0 104 30" shape-rendering="crispEdges"><rect x="18" y="0" width="2" height="1" fill="#0b0a10"/><rect x="20" y="0" width="1" height="1" fill="#d9cfb4"/><rect x="21" y="0" width="1" height="1" fill="#0b0a10"/><rect x="23" y="0" width="1" height="1" fill="#0b0a10"/><rect x="37" y="0" width="3" height="1" fill="#0b0a10"/><rect x="17" y="1" width="1" height="1" fill="#0b0a10"/><rect x="18" y="1" width="2" height="1" fill="#d9cfb4"/><rect x="20" y="1" width="3" height="1" fill="#0b0a10"/><rect x="23" y="1" width="1" height="1" fill="#3a1218"/><rect x="24" y="1" width="1" height="1" fill="#0b0a10"/><rect x="34" y="1" width="3" height="1" fill="#0b0a10"/><rect x="37" y="1" width="3" height="1" fill="#d9cfb4"/><rect x="40" y="1" width="4" height="1" fill="#0b0a10"/><rect x="16" y="2" width="1" height="1" fill="#0b0a10"/><rect x="17" y="2" width="1" height="1" fill="#d9cfb4"/><rect x="18" y="2" width="3" height="1" fill="#0b0a10"/><rect x="21" y="2" width="4" height="1" fill="#3a1218"/><rect x="25" y="2" width="1" height="1" fill="#0b0a10"/><rect x="32" y="2" width="2" height="1" fill="#0b0a10"/><rect x="34" y="2" width="1" height="1" fill="#86302f"/><rect x="35" y="2" width="2" height="1" fill="#d9cfb4"/><rect x="37" y="2" width="1" height="1" fill="#86302f"/><rect x="38" y="2" width="6" height="1" fill="#d9cfb4"/><rect x="44" y="2" width="5" height="1" fill="#0b0a10"/><rect x="9" y="3" width="4" height="1" fill="#0b0a10"/><rect x="14" y="3" width="2" height="1" fill="#0b0a10"/><rect x="16" y="3" width="1" height="1" fill="#d9cfb4"/><rect x="17" y="3" width="1" height="1" fill="#0b0a10"/><rect x="19" y="3" width="1" height="1" fill="#0b0a10"/><rect x="20" y="3" width="5" height="1" fill="#3a1218"/><rect x="25" y="3" width="1" height="1" fill="#0b0a10"/><rect x="29" y="3" width="3" height="1" fill="#0b0a10"/><rect x="32" y="3" width="3" height="1" fill="#d9cfb4"/><rect x="35" y="3" width="2" height="1" fill="#86302f"/><rect x="37" y="3" width="1" height="1" fill="#5c1a22"/><rect x="38" y="3" width="1" height="1" fill="#86302f"/><rect x="39" y="3" width="2" height="1" fill="#d9cfb4"/><rect x="41" y="3" width="3" height="1" fill="#86302f"/><rect x="44" y="3" width="4" height="1" fill="#d9cfb4"/><rect x="48" y="3" width="1" height="1" fill="#86302f"/><rect x="49" y="3" width="2" height="1" fill="#0b0a10"/><rect x="6" y="4" width="3" height="1" fill="#0b0a10"/><rect x="9" y="4" width="4" height="1" fill="#4a3d57"/><rect x="13" y="4" width="1" height="1" fill="#0b0a10"/><rect x="14" y="4" width="2" height="1" fill="#d9cfb4"/><rect x="16" y="4" width="1" height="1" fill="#191420"/><rect x="17" y="4" width="2" height="1" fill="#0b0a10"/><rect x="19" y="4" width="1" height="1" fill="#3a1218"/><rect x="20" y="4" width="2" height="1" fill="#d9cfb4"/><rect x="22" y="4" width="3" height="1" fill="#3a1218"/><rect x="25" y="4" width="1" height="1" fill="#0b0a10"/><rect x="28" y="4" width="1" height="1" fill="#0b0a10"/><rect x="29" y="4" width="1" height="1" fill="#86302f"/><rect x="30" y="4" width="2" height="1" fill="#d9cfb4"/><rect x="32" y="4" width="3" height="1" fill="#86302f"/><rect x="35" y="4" width="3" height="1" fill="#5c1a22"/><rect x="38" y="4" width="1" height="1" fill="#86302f"/><rect x="39" y="4" width="1" height="1" fill="#d9cfb4"/><rect x="40" y="4" width="1" height="1" fill="#86302f"/><rect x="41" y="4" width="1" height="1" fill="#d9cfb4"/><rect x="42" y="4" width="1" height="1" fill="#86302f"/><rect x="43" y="4" width="1" height="1" fill="#5c1a22"/><rect x="44" y="4" width="4" height="1" fill="#86302f"/><rect x="48" y="4" width="3" height="1" fill="#d9cfb4"/><rect x="51" y="4" width="1" height="1" fill="#0b0a10"/><rect x="3" y="5" width="3" height="1" fill="#0b0a10"/><rect x="6" y="5" width="3" height="1" fill="#4a3d57"/><rect x="9" y="5" width="4" height="1" fill="#2b2433"/><rect x="13" y="5" width="1" height="1" fill="#d9cfb4"/><rect x="14" y="5" width="1" height="1" fill="#0b0a10"/><rect x="15" y="5" width="3" height="1" fill="#191420"/><rect x="18" y="5" width="2" height="1" fill="#d9cfb4"/><rect x="20" y="5" width="6" height="1" fill="#3a1218"/><rect x="26" y="5" width="2" height="1" fill="#0b0a10"/><rect x="28" y="5" width="2" height="1" fill="#d9cfb4"/><rect x="30" y="5" width="2" height="1" fill="#86302f"/><rect x="32" y="5" width="6" height="1" fill="#5c1a22"/><rect x="38" y="5" width="1" height="1" fill="#86302f"/><rect x="39" y="5" width="1" height="1" fill="#d9cfb4"/><rect x="40" y="5" width="2" height="1" fill="#86302f"/><rect x="42" y="5" width="1" height="1" fill="#d9cfb4"/><rect x="43" y="5" width="1" height="1" fill="#86302f"/><rect x="44" y="5" width="4" height="1" fill="#5c1a22"/><rect x="48" y="5" width="2" height="1" fill="#86302f"/><rect x="50" y="5" width="1" height="1" fill="#0b0a10"/><rect x="1" y="6" width="2" height="1" fill="#0b0a10"/><rect x="3" y="6" width="4" height="1" fill="#4a3d57"/><rect x="7" y="6" width="3" height="1" fill="#2b2433"/><rect x="10" y="6" width="1" height="1" fill="#4a3d57"/><rect x="11" y="6" width="3" height="1" fill="#2b2433"/><rect x="14" y="6" width="1" height="1" fill="#4a3d57"/><rect x="15" y="6" width="1" height="1" fill="#2b2433"/><rect x="16" y="6" width="2" height="1" fill="#d9cfb4"/><rect x="18" y="6" width="1" height="1" fill="#0b0a10"/><rect x="19" y="6" width="1" height="1" fill="#3a1218"/><rect x="20" y="6" width="1" height="1" fill="#191420"/><rect x="21" y="6" width="5" height="1" fill="#3a1218"/><rect x="26" y="6" width="1" height="1" fill="#0b0a10"/><rect x="27" y="6" width="1" height="1" fill="#d9cfb4"/><rect x="28" y="6" width="2" height="1" fill="#86302f"/><rect x="30" y="6" width="9" height="1" fill="#5c1a22"/><rect x="39" y="6" width="1" height="1" fill="#86302f"/><rect x="40" y="6" width="1" height="1" fill="#d9cfb4"/><rect x="41" y="6" width="2" height="1" fill="#86302f"/><rect x="43" y="6" width="1" height="1" fill="#d9cfb4"/><rect x="44" y="6" width="1" height="1" fill="#86302f"/><rect x="45" y="6" width="1" height="1" fill="#5c1a22"/><rect x="46" y="6" width="1" height="1" fill="#0b0a10"/><rect x="47" y="6" width="2" height="1" fill="#5c1a22"/><rect x="49" y="6" width="1" height="1" fill="#0b0a10"/><rect x="50" y="6" width="1" height="1" fill="#d9cfb4"/><rect x="51" y="6" width="1" height="1" fill="#0b0a10"/><rect x="0" y="7" width="1" height="1" fill="#0b0a10"/><rect x="1" y="7" width="2" height="1" fill="#4a3d57"/><rect x="3" y="7" width="6" height="1" fill="#2b2433"/><rect x="9" y="7" width="3" height="1" fill="#0b0a10"/><rect x="12" y="7" width="2" height="1" fill="#2b2433"/><rect x="14" y="7" width="2" height="1" fill="#d9cfb4"/><rect x="16" y="7" width="2" height="1" fill="#2b2433"/><rect x="18" y="7" width="1" height="1" fill="#0b0a10"/><rect x="19" y="7" width="1" height="1" fill="#3a1218"/><rect x="20" y="7" width="1" height="1" fill="#191420"/><rect x="21" y="7" width="4" height="1" fill="#3a1218"/><rect x="25" y="7" width="1" height="1" fill="#0b0a10"/><rect x="26" y="7" width="1" height="1" fill="#86302f"/><rect x="27" y="7" width="1" height="1" fill="#d9cfb4"/><rect x="28" y="7" width="1" height="1" fill="#86302f"/><rect x="29" y="7" width="10" height="1" fill="#5c1a22"/><rect x="39" y="7" width="1" height="1" fill="#86302f"/><rect x="40" y="7" width="1" height="1" fill="#d9cfb4"/><rect x="41" y="7" width="1" height="1" fill="#86302f"/><rect x="42" y="7" width="1" height="1" fill="#5c1a22"/><rect x="43" y="7" width="1" height="1" fill="#86302f"/><rect x="44" y="7" width="1" height="1" fill="#d9cfb4"/><rect x="45" y="7" width="1" height="1" fill="#86302f"/><rect x="46" y="7" width="4" height="1" fill="#0b0a10"/><rect x="50" y="7" width="2" height="1" fill="#d9cfb4"/><rect x="0" y="8" width="1" height="1" fill="#4a3d57"/><rect x="1" y="8" width="1" height="1" fill="#2b2433"/><rect x="2" y="8" width="1" height="1" fill="#0b0a10"/><rect x="3" y="8" width="7" height="1" fill="#2b2433"/><rect x="10" y="8" width="2" height="1" fill="#ffd23a"/><rect x="12" y="8" width="1" height="1" fill="#0b0a10"/><rect x="13" y="8" width="5" height="1" fill="#2b2433"/><rect x="18" y="8" width="1" height="1" fill="#4a3d57"/><rect x="19" y="8" width="3" height="1" fill="#191420"/><rect x="22" y="8" width="2" height="1" fill="#3a1218"/><rect x="24" y="8" width="2" height="1" fill="#0b0a10"/><rect x="26" y="8" width="1" height="1" fill="#d9cfb4"/><rect x="27" y="8" width="1" height="1" fill="#86302f"/><rect x="28" y="8" width="12" height="1" fill="#5c1a22"/><rect x="40" y="8" width="1" height="1" fill="#86302f"/><rect x="41" y="8" width="1" height="1" fill="#d9cfb4"/><rect x="42" y="8" width="1" height="1" fill="#86302f"/><rect x="43" y="8" width="1" height="1" fill="#5c1a22"/><rect x="44" y="8" width="1" height="1" fill="#86302f"/><rect x="45" y="8" width="1" height="1" fill="#d9cfb4"/><rect x="46" y="8" width="1" height="1" fill="#86302f"/><rect x="47" y="8" width="2" height="1" fill="#0b0a10"/><rect x="49" y="8" width="3" height="1" fill="#d9cfb4"/><rect x="0" y="9" width="1" height="1" fill="#0b0a10"/><rect x="1" y="9" width="2" height="1" fill="#2b2433"/><rect x="3" y="9" width="1" height="1" fill="#4a3d57"/><rect x="4" y="9" width="3" height="1" fill="#2b2433"/><rect x="7" y="9" width="1" height="1" fill="#4a3d57"/><rect x="8" y="9" width="3" height="1" fill="#2b2433"/><rect x="11" y="9" width="1" height="1" fill="#4a3d57"/><rect x="12" y="9" width="3" height="1" fill="#2b2433"/><rect x="15" y="9" width="1" height="1" fill="#4a3d57"/><rect x="16" y="9" width="3" height="1" fill="#2b2433"/><rect x="19" y="9" width="1" height="1" fill="#4a3d57"/><rect x="20" y="9" width="2" height="1" fill="#191420"/><rect x="22" y="9" width="1" height="1" fill="#3a1218"/><rect x="23" y="9" width="2" height="1" fill="#0b0a10"/><rect x="25" y="9" width="1" height="1" fill="#d9cfb4"/><rect x="26" y="9" width="1" height="1" fill="#86302f"/><rect x="27" y="9" width="13" height="1" fill="#5c1a22"/><rect x="40" y="9" width="1" height="1" fill="#86302f"/><rect x="41" y="9" width="1" height="1" fill="#d9cfb4"/><rect x="42" y="9" width="1" height="1" fill="#86302f"/><rect x="43" y="9" width="2" height="1" fill="#0b0a10"/><rect x="45" y="9" width="1" height="1" fill="#86302f"/><rect x="46" y="9" width="1" height="1" fill="#d9cfb4"/><rect x="47" y="9" width="2" height="1" fill="#0b0a10"/><rect x="49" y="9" width="3" height="1" fill="#d9cfb4"/><rect x="0" y="10" width="1" height="1" fill="#0b0a10"/><rect x="1" y="10" width="1" height="1" fill="#191420"/><rect x="2" y="10" width="1" height="1" fill="#f4eedc"/><rect x="3" y="10" width="1" height="1" fill="#2b2433"/><rect x="4" y="10" width="1" height="1" fill="#f4eedc"/><rect x="5" y="10" width="1" height="1" fill="#2b2433"/><rect x="6" y="10" width="1" height="1" fill="#f4eedc"/><rect x="7" y="10" width="14" height="1" fill="#2b2433"/><rect x="21" y="10" width="1" height="1" fill="#3a1218"/><rect x="22" y="10" width="2" height="1" fill="#0b0a10"/><rect x="24" y="10" width="1" height="1" fill="#86302f"/><rect x="25" y="10" width="1" height="1" fill="#d9cfb4"/><rect x="26" y="10" width="1" height="1" fill="#86302f"/><rect x="27" y="10" width="13" height="1" fill="#5c1a22"/><rect x="40" y="10" width="1" height="1" fill="#86302f"/><rect x="41" y="10" width="1" height="1" fill="#d9cfb4"/><rect x="42" y="10" width="1" height="1" fill="#86302f"/><rect x="43" y="10" width="1" height="1" fill="#0b0a10"/><rect x="45" y="10" width="2" height="1" fill="#0b0a10"/><rect x="48" y="10" width="1" height="1" fill="#0b0a10"/><rect x="49" y="10" width="1" height="1" fill="#2b2433"/><rect x="50" y="10" width="1" height="1" fill="#d9cfb4"/><rect x="51" y="10" width="1" height="1" fill="#0b0a10"/><rect x="1" y="11" width="1" height="1" fill="#0b0a10"/><rect x="2" y="11" width="9" height="1" fill="#191420"/><rect x="11" y="11" width="1" height="1" fill="#2b2433"/><rect x="12" y="11" width="1" height="1" fill="#191420"/><rect x="13" y="11" width="9" height="1" fill="#2b2433"/><rect x="22" y="11" width="2" height="1" fill="#0b0a10"/><rect x="24" y="11" width="1" height="1" fill="#d9cfb4"/><rect x="25" y="11" width="1" height="1" fill="#86302f"/><rect x="26" y="11" width="1" height="1" fill="#5c1a22"/><rect x="27" y="11" width="2" height="1" fill="#191420"/><rect x="29" y="11" width="3" height="1" fill="#5c1a22"/><rect x="32" y="11" width="2" height="1" fill="#191420"/><rect x="34" y="11" width="3" height="1" fill="#5c1a22"/><rect x="37" y="11" width="2" height="1" fill="#0b0a10"/><rect x="39" y="11" width="2" height="1" fill="#5c1a22"/><rect x="41" y="11" width="1" height="1" fill="#86302f"/><rect x="42" y="11" width="1" height="1" fill="#d9cfb4"/><rect x="43" y="11" width="1" height="1" fill="#0b0a10"/><rect x="47" y="11" width="1" height="1" fill="#0b0a10"/><rect x="48" y="11" width="1" height="1" fill="#4a3d57"/><rect x="49" y="11" width="2" height="1" fill="#2b2433"/><rect x="51" y="11" width="1" height="1" fill="#0b0a10"/><rect x="2" y="12" width="9" height="1" fill="#0b0a10"/><rect x="11" y="12" width="1" height="1" fill="#d9cfb4"/><rect x="12" y="12" width="1" height="1" fill="#0b0a10"/><rect x="13" y="12" width="1" height="1" fill="#191420"/><rect x="14" y="12" width="2" height="1" fill="#2b2433"/><rect x="16" y="12" width="1" height="1" fill="#4a3d57"/><rect x="17" y="12" width="3" height="1" fill="#2b2433"/><rect x="20" y="12" width="1" height="1" fill="#4a3d57"/><rect x="21" y="12" width="1" height="1" fill="#2b2433"/><rect x="22" y="12" width="1" height="1" fill="#4a3d57"/><rect x="23" y="12" width="1" height="1" fill="#d9cfb4"/><rect x="24" y="12" width="1" height="1" fill="#86302f"/><rect x="25" y="12" width="2" height="1" fill="#5c1a22"/><rect x="27" y="12" width="2" height="1" fill="#191420"/><rect x="29" y="12" width="3" height="1" fill="#5c1a22"/><rect x="32" y="12" width="2" height="1" fill="#191420"/><rect x="34" y="12" width="2" height="1" fill="#5c1a22"/><rect x="36" y="12" width="1" height="1" fill="#0b0a10"/><rect x="37" y="12" width="2" height="1" fill="#191420"/><rect x="39" y="12" width="2" height="1" fill="#0b0a10"/><rect x="41" y="12" width="1" height="1" fill="#86302f"/><rect x="42" y="12" width="1" height="1" fill="#d9cfb4"/><rect x="43" y="12" width="1" height="1" fill="#0b0a10"/><rect x="46" y="12" width="1" height="1" fill="#0b0a10"/><rect x="47" y="12" width="2" height="1" fill="#4a3d57"/><rect x="49" y="12" width="1" height="1" fill="#2b2433"/><rect x="50" y="12" width="1" height="1" fill="#191420"/><rect x="51" y="12" width="1" height="1" fill="#0b0a10"/><rect x="11" y="13" width="1" height="1" fill="#0b0a10"/><rect x="12" y="13" width="1" height="1" fill="#d9cfb4"/><rect x="13" y="13" width="1" height="1" fill="#0b0a10"/><rect x="14" y="13" width="1" height="1" fill="#191420"/><rect x="15" y="13" width="11" height="1" fill="#2b2433"/><rect x="26" y="13" width="4" height="1" fill="#191420"/><rect x="30" y="13" width="1" height="1" fill="#5c1a22"/><rect x="31" y="13" width="4" height="1" fill="#191420"/><rect x="35" y="13" width="2" height="1" fill="#0b0a10"/><rect x="37" y="13" width="2" height="1" fill="#191420"/><rect x="39" y="13" width="1" height="1" fill="#0b0a10"/><rect x="41" y="13" width="1" height="1" fill="#0b0a10"/><rect x="42" y="13" width="2" height="1" fill="#191420"/><rect x="44" y="13" width="2" height="1" fill="#0b0a10"/><rect x="46" y="13" width="1" height="1" fill="#4a3d57"/><rect x="47" y="13" width="2" height="1" fill="#2b2433"/><rect x="49" y="13" width="1" height="1" fill="#191420"/><rect x="50" y="13" width="1" height="1" fill="#0b0a10"/><rect x="12" y="14" width="1" height="1" fill="#0b0a10"/><rect x="13" y="14" width="1" height="1" fill="#d9cfb4"/><rect x="14" y="14" width="1" height="1" fill="#0b0a10"/><rect x="15" y="14" width="1" height="1" fill="#191420"/><rect x="16" y="14" width="19" height="1" fill="#2b2433"/><rect x="35" y="14" width="1" height="1" fill="#4a3d57"/><rect x="36" y="14" width="4" height="1" fill="#191420"/><rect x="40" y="14" width="2" height="1" fill="#0b0a10"/><rect x="42" y="14" width="3" height="1" fill="#191420"/><rect x="45" y="14" width="1" height="1" fill="#4a3d57"/><rect x="46" y="14" width="2" height="1" fill="#2b2433"/><rect x="48" y="14" width="1" height="1" fill="#191420"/><rect x="49" y="14" width="1" height="1" fill="#0b0a10"/><rect x="13" y="15" width="1" height="1" fill="#0b0a10"/><rect x="15" y="15" width="1" height="1" fill="#0b0a10"/><rect x="16" y="15" width="1" height="1" fill="#191420"/><rect x="17" y="15" width="1" height="1" fill="#4a3d57"/><rect x="18" y="15" width="3" height="1" fill="#2b2433"/><rect x="21" y="15" width="1" height="1" fill="#4a3d57"/><rect x="22" y="15" width="3" height="1" fill="#2b2433"/><rect x="25" y="15" width="1" height="1" fill="#4a3d57"/><rect x="26" y="15" width="3" height="1" fill="#2b2433"/><rect x="29" y="15" width="1" height="1" fill="#4a3d57"/><rect x="30" y="15" width="3" height="1" fill="#2b2433"/><rect x="33" y="15" width="1" height="1" fill="#4a3d57"/><rect x="34" y="15" width="3" height="1" fill="#2b2433"/><rect x="37" y="15" width="1" height="1" fill="#4a3d57"/><rect x="38" y="15" width="1" height="1" fill="#2b2433"/><rect x="39" y="15" width="3" height="1" fill="#0b0a10"/><rect x="42" y="15" width="3" height="1" fill="#2b2433"/><rect x="45" y="15" width="1" height="1" fill="#4a3d57"/><rect x="46" y="15" width="2" height="1" fill="#2b2433"/><rect x="48" y="15" width="1" height="1" fill="#0b0a10"/><rect x="16" y="16" width="1" height="1" fill="#0b0a10"/><rect x="17" y="16" width="1" height="1" fill="#191420"/><rect x="18" y="16" width="21" height="1" fill="#2b2433"/><rect x="39" y="16" width="3" height="1" fill="#4a3d57"/><rect x="42" y="16" width="5" height="1" fill="#2b2433"/><rect x="47" y="16" width="1" height="1" fill="#191420"/><rect x="48" y="16" width="1" height="1" fill="#0b0a10"/><rect x="17" y="17" width="1" height="1" fill="#0b0a10"/><rect x="18" y="17" width="28" height="1" fill="#2b2433"/><rect x="46" y="17" width="1" height="1" fill="#191420"/><rect x="47" y="17" width="1" height="1" fill="#0b0a10"/><rect x="17" y="18" width="1" height="1" fill="#0b0a10"/><rect x="18" y="18" width="1" height="1" fill="#191420"/><rect x="19" y="18" width="3" height="1" fill="#2b2433"/><rect x="22" y="18" width="1" height="1" fill="#4a3d57"/><rect x="23" y="18" width="3" height="1" fill="#2b2433"/><rect x="26" y="18" width="1" height="1" fill="#4a3d57"/><rect x="27" y="18" width="3" height="1" fill="#2b2433"/><rect x="30" y="18" width="1" height="1" fill="#4a3d57"/><rect x="31" y="18" width="3" height="1" fill="#2b2433"/><rect x="34" y="18" width="1" height="1" fill="#4a3d57"/><rect x="35" y="18" width="3" height="1" fill="#2b2433"/><rect x="38" y="18" width="1" height="1" fill="#4a3d57"/><rect x="39" y="18" width="3" height="1" fill="#2b2433"/><rect x="42" y="18" width="1" height="1" fill="#4a3d57"/><rect x="43" y="18" width="2" height="1" fill="#2b2433"/><rect x="45" y="18" width="1" height="1" fill="#191420"/><rect x="46" y="18" width="1" height="1" fill="#0b0a10"/><rect x="18" y="19" width="1" height="1" fill="#0b0a10"/><rect x="19" y="19" width="25" height="1" fill="#2b2433"/><rect x="44" y="19" width="1" height="1" fill="#191420"/><rect x="45" y="19" width="1" height="1" fill="#0b0a10"/><rect x="18" y="20" width="1" height="1" fill="#0b0a10"/><rect x="19" y="20" width="2" height="1" fill="#8a2a1e"/><rect x="21" y="20" width="21" height="1" fill="#2b2433"/><rect x="42" y="20" width="2" height="1" fill="#191420"/><rect x="44" y="20" width="1" height="1" fill="#0b0a10"/><rect x="18" y="21" width="1" height="1" fill="#0b0a10"/><rect x="19" y="21" width="2" height="1" fill="#8a2a1e"/><rect x="21" y="21" width="1" height="1" fill="#5e1b14"/><rect x="22" y="21" width="2" height="1" fill="#8a2a1e"/><rect x="24" y="21" width="1" height="1" fill="#5e1b14"/><rect x="25" y="21" width="2" height="1" fill="#8a2a1e"/><rect x="27" y="21" width="1" height="1" fill="#5e1b14"/><rect x="28" y="21" width="2" height="1" fill="#8a2a1e"/><rect x="30" y="21" width="1" height="1" fill="#5e1b14"/><rect x="31" y="21" width="1" height="1" fill="#4a3d57"/><rect x="32" y="21" width="3" height="1" fill="#2b2433"/><rect x="35" y="21" width="1" height="1" fill="#4a3d57"/><rect x="36" y="21" width="3" height="1" fill="#2b2433"/><rect x="39" y="21" width="1" height="1" fill="#4a3d57"/><rect x="40" y="21" width="2" height="1" fill="#2b2433"/><rect x="42" y="21" width="2" height="1" fill="#0b0a10"/><rect x="19" y="22" width="1" height="1" fill="#0b0a10"/><rect x="20" y="22" width="1" height="1" fill="#8a2a1e"/><rect x="21" y="22" width="1" height="1" fill="#5e1b14"/><rect x="22" y="22" width="2" height="1" fill="#8a2a1e"/><rect x="24" y="22" width="1" height="1" fill="#5e1b14"/><rect x="25" y="22" width="2" height="1" fill="#8a2a1e"/><rect x="27" y="22" width="1" height="1" fill="#5e1b14"/><rect x="28" y="22" width="2" height="1" fill="#8a2a1e"/><rect x="30" y="22" width="1" height="1" fill="#5e1b14"/><rect x="31" y="22" width="2" height="1" fill="#8a2a1e"/><rect x="33" y="22" width="1" height="1" fill="#5e1b14"/><rect x="34" y="22" width="2" height="1" fill="#8a2a1e"/><rect x="36" y="22" width="1" height="1" fill="#5e1b14"/><rect x="37" y="22" width="2" height="1" fill="#8a2a1e"/><rect x="39" y="22" width="1" height="1" fill="#5e1b14"/><rect x="40" y="22" width="1" height="1" fill="#2b2433"/><rect x="41" y="22" width="1" height="1" fill="#191420"/><rect x="42" y="22" width="1" height="1" fill="#0b0a10"/><rect x="19" y="23" width="1" height="1" fill="#0b0a10"/><rect x="20" y="23" width="1" height="1" fill="#8a2a1e"/><rect x="21" y="23" width="1" height="1" fill="#5e1b14"/><rect x="22" y="23" width="2" height="1" fill="#8a2a1e"/><rect x="24" y="23" width="1" height="1" fill="#0b0a10"/><rect x="25" y="23" width="2" height="1" fill="#8a2a1e"/><rect x="27" y="23" width="1" height="1" fill="#5e1b14"/><rect x="28" y="23" width="2" height="1" fill="#8a2a1e"/><rect x="30" y="23" width="1" height="1" fill="#5e1b14"/><rect x="31" y="23" width="2" height="1" fill="#8a2a1e"/><rect x="33" y="23" width="1" height="1" fill="#5e1b14"/><rect x="34" y="23" width="2" height="1" fill="#8a2a1e"/><rect x="36" y="23" width="1" height="1" fill="#5e1b14"/><rect x="37" y="23" width="2" height="1" fill="#8a2a1e"/><rect x="39" y="23" width="1" height="1" fill="#5e1b14"/><rect x="40" y="23" width="1" height="1" fill="#191420"/><rect x="41" y="23" width="1" height="1" fill="#0b0a10"/><rect x="19" y="24" width="1" height="1" fill="#0b0a10"/><rect x="20" y="24" width="1" height="1" fill="#4a3d57"/><rect x="21" y="24" width="1" height="1" fill="#5e1b14"/><rect x="22" y="24" width="2" height="1" fill="#8a2a1e"/><rect x="24" y="24" width="10" height="1" fill="#0b0a10"/><rect x="34" y="24" width="2" height="1" fill="#8a2a1e"/><rect x="36" y="24" width="1" height="1" fill="#5e1b14"/><rect x="37" y="24" width="2" height="1" fill="#8a2a1e"/><rect x="39" y="24" width="1" height="1" fill="#5e1b14"/><rect x="40" y="24" width="1" height="1" fill="#0b0a10"/><rect x="18" y="25" width="1" height="1" fill="#0b0a10"/><rect x="19" y="25" width="1" height="1" fill="#4a3d57"/><rect x="20" y="25" width="3" height="1" fill="#2b2433"/><rect x="23" y="25" width="1" height="1" fill="#0b0a10"/><rect x="32" y="25" width="1" height="1" fill="#0b0a10"/><rect x="33" y="25" width="1" height="1" fill="#4a3d57"/><rect x="34" y="25" width="5" height="1" fill="#2b2433"/><rect x="39" y="25" width="1" height="1" fill="#0b0a10"/><rect x="18" y="26" width="1" height="1" fill="#0b0a10"/><rect x="19" y="26" width="3" height="1" fill="#2b2433"/><rect x="22" y="26" width="1" height="1" fill="#191420"/><rect x="23" y="26" width="1" height="1" fill="#0b0a10"/><rect x="32" y="26" width="1" height="1" fill="#0b0a10"/><rect x="33" y="26" width="6" height="1" fill="#2b2433"/><rect x="39" y="26" width="1" height="1" fill="#0b0a10"/><rect x="17" y="27" width="1" height="1" fill="#0b0a10"/><rect x="18" y="27" width="1" height="1" fill="#4a3d57"/><rect x="19" y="27" width="3" height="1" fill="#191420"/><rect x="22" y="27" width="1" height="1" fill="#0b0a10"/><rect x="32" y="27" width="1" height="1" fill="#0b0a10"/><rect x="33" y="27" width="6" height="1" fill="#191420"/><rect x="39" y="27" width="1" height="1" fill="#0b0a10"/><rect x="17" y="28" width="5" height="1" fill="#0b0a10"/><rect x="32" y="28" width="7" height="1" fill="#0b0a10"/><rect x="16" y="29" width="1" height="1" fill="#0b0a10"/><rect x="17" y="29" width="1" height="1" fill="#d9cfb4"/><rect x="18" y="29" width="1" height="1" fill="#0b0a10"/><rect x="19" y="29" width="1" height="1" fill="#d9cfb4"/><rect x="20" y="29" width="1" height="1" fill="#0b0a10"/><rect x="21" y="29" width="1" height="1" fill="#d9cfb4"/><rect x="22" y="29" width="1" height="1" fill="#0b0a10"/><rect x="31" y="29" width="1" height="1" fill="#0b0a10"/><rect x="32" y="29" width="1" height="1" fill="#d9cfb4"/><rect x="33" y="29" width="1" height="1" fill="#0b0a10"/><rect x="34" y="29" width="1" height="1" fill="#d9cfb4"/><rect x="35" y="29" width="1" height="1" fill="#0b0a10"/><rect x="36" y="29" width="1" height="1" fill="#d9cfb4"/><rect x="37" y="29" width="1" height="1" fill="#0b0a10"/><rect x="70" y="0" width="2" height="1" fill="#0b0a10"/><rect x="72" y="0" width="1" height="1" fill="#d9cfb4"/><rect x="73" y="0" width="1" height="1" fill="#0b0a10"/><rect x="69" y="1" width="1" height="1" fill="#0b0a10"/><rect x="70" y="1" width="2" height="1" fill="#d9cfb4"/><rect x="72" y="1" width="1" height="1" fill="#0b0a10"/><rect x="68" y="2" width="1" height="1" fill="#0b0a10"/><rect x="69" y="2" width="1" height="1" fill="#d9cfb4"/><rect x="70" y="2" width="2" height="1" fill="#0b0a10"/><rect x="61" y="3" width="4" height="1" fill="#0b0a10"/><rect x="66" y="3" width="2" height="1" fill="#0b0a10"/><rect x="68" y="3" width="1" height="1" fill="#d9cfb4"/><rect x="69" y="3" width="1" height="1" fill="#0b0a10"/><rect x="72" y="3" width="2" height="1" fill="#0b0a10"/><rect x="58" y="4" width="3" height="1" fill="#0b0a10"/><rect x="61" y="4" width="4" height="1" fill="#4a3d57"/><rect x="65" y="4" width="1" height="1" fill="#0b0a10"/><rect x="66" y="4" width="2" height="1" fill="#d9cfb4"/><rect x="68" y="4" width="1" height="1" fill="#191420"/><rect x="69" y="4" width="3" height="1" fill="#0b0a10"/><rect x="72" y="4" width="2" height="1" fill="#d9cfb4"/><rect x="74" y="4" width="1" height="1" fill="#0b0a10"/><rect x="55" y="5" width="3" height="1" fill="#0b0a10"/><rect x="58" y="5" width="3" height="1" fill="#4a3d57"/><rect x="61" y="5" width="4" height="1" fill="#2b2433"/><rect x="65" y="5" width="1" height="1" fill="#d9cfb4"/><rect x="66" y="5" width="1" height="1" fill="#0b0a10"/><rect x="67" y="5" width="3" height="1" fill="#191420"/><rect x="70" y="5" width="2" height="1" fill="#d9cfb4"/><rect x="72" y="5" width="2" height="1" fill="#0b0a10"/><rect x="102" y="5" width="1" height="1" fill="#0b0a10"/><rect x="53" y="6" width="2" height="1" fill="#0b0a10"/><rect x="55" y="6" width="4" height="1" fill="#4a3d57"/><rect x="59" y="6" width="3" height="1" fill="#2b2433"/><rect x="62" y="6" width="1" height="1" fill="#4a3d57"/><rect x="63" y="6" width="3" height="1" fill="#2b2433"/><rect x="66" y="6" width="1" height="1" fill="#4a3d57"/><rect x="67" y="6" width="1" height="1" fill="#2b2433"/><rect x="68" y="6" width="2" height="1" fill="#d9cfb4"/><rect x="70" y="6" width="2" height="1" fill="#0b0a10"/><rect x="72" y="6" width="1" height="1" fill="#191420"/><rect x="73" y="6" width="1" height="1" fill="#0b0a10"/><rect x="101" y="6" width="1" height="1" fill="#0b0a10"/><rect x="102" y="6" width="1" height="1" fill="#d9cfb4"/><rect x="103" y="6" width="1" height="1" fill="#0b0a10"/><rect x="52" y="7" width="1" height="1" fill="#0b0a10"/><rect x="53" y="7" width="2" height="1" fill="#4a3d57"/><rect x="55" y="7" width="6" height="1" fill="#2b2433"/><rect x="61" y="7" width="3" height="1" fill="#0b0a10"/><rect x="64" y="7" width="2" height="1" fill="#2b2433"/><rect x="66" y="7" width="2" height="1" fill="#d9cfb4"/><rect x="68" y="7" width="2" height="1" fill="#2b2433"/><rect x="70" y="7" width="2" height="1" fill="#0b0a10"/><rect x="72" y="7" width="1" height="1" fill="#191420"/><rect x="73" y="7" width="1" height="1" fill="#0b0a10"/><rect x="101" y="7" width="1" height="1" fill="#0b0a10"/><rect x="102" y="7" width="2" height="1" fill="#d9cfb4"/><rect x="52" y="8" width="1" height="1" fill="#4a3d57"/><rect x="53" y="8" width="1" height="1" fill="#2b2433"/><rect x="54" y="8" width="1" height="1" fill="#0b0a10"/><rect x="55" y="8" width="7" height="1" fill="#2b2433"/><rect x="62" y="8" width="2" height="1" fill="#ffd23a"/><rect x="64" y="8" width="1" height="1" fill="#0b0a10"/><rect x="65" y="8" width="5" height="1" fill="#2b2433"/><rect x="70" y="8" width="1" height="1" fill="#4a3d57"/><rect x="71" y="8" width="3" height="1" fill="#191420"/><rect x="74" y="8" width="1" height="1" fill="#0b0a10"/><rect x="100" y="8" width="1" height="1" fill="#0b0a10"/><rect x="101" y="8" width="3" height="1" fill="#d9cfb4"/><rect x="52" y="9" width="1" height="1" fill="#0b0a10"/><rect x="53" y="9" width="2" height="1" fill="#2b2433"/><rect x="55" y="9" width="1" height="1" fill="#4a3d57"/><rect x="56" y="9" width="3" height="1" fill="#2b2433"/><rect x="59" y="9" width="1" height="1" fill="#4a3d57"/><rect x="60" y="9" width="3" height="1" fill="#2b2433"/><rect x="63" y="9" width="1" height="1" fill="#4a3d57"/><rect x="64" y="9" width="3" height="1" fill="#2b2433"/><rect x="67" y="9" width="1" height="1" fill="#4a3d57"/><rect x="68" y="9" width="3" height="1" fill="#2b2433"/><rect x="71" y="9" width="1" height="1" fill="#4a3d57"/><rect x="72" y="9" width="2" height="1" fill="#191420"/><rect x="74" y="9" width="1" height="1" fill="#0b0a10"/><rect x="81" y="9" width="6" height="1" fill="#0b0a10"/><rect x="100" y="9" width="1" height="1" fill="#0b0a10"/><rect x="101" y="9" width="3" height="1" fill="#d9cfb4"/><rect x="52" y="10" width="1" height="1" fill="#0b0a10"/><rect x="53" y="10" width="1" height="1" fill="#191420"/><rect x="54" y="10" width="1" height="1" fill="#f4eedc"/><rect x="55" y="10" width="1" height="1" fill="#2b2433"/><rect x="56" y="10" width="1" height="1" fill="#f4eedc"/><rect x="57" y="10" width="1" height="1" fill="#2b2433"/><rect x="58" y="10" width="1" height="1" fill="#f4eedc"/><rect x="59" y="10" width="14" height="1" fill="#2b2433"/><rect x="73" y="10" width="1" height="1" fill="#0b0a10"/><rect x="79" y="10" width="2" height="1" fill="#0b0a10"/><rect x="81" y="10" width="6" height="1" fill="#d9cfb4"/><rect x="87" y="10" width="6" height="1" fill="#0b0a10"/><rect x="100" y="10" width="1" height="1" fill="#0b0a10"/><rect x="101" y="10" width="1" height="1" fill="#2b2433"/><rect x="102" y="10" width="1" height="1" fill="#d9cfb4"/><rect x="103" y="10" width="1" height="1" fill="#0b0a10"/><rect x="53" y="11" width="1" height="1" fill="#0b0a10"/><rect x="54" y="11" width="9" height="1" fill="#191420"/><rect x="63" y="11" width="1" height="1" fill="#2b2433"/><rect x="64" y="11" width="1" height="1" fill="#191420"/><rect x="65" y="11" width="8" height="1" fill="#2b2433"/><rect x="73" y="11" width="1" height="1" fill="#4a3d57"/><rect x="74" y="11" width="1" height="1" fill="#0b0a10"/><rect x="77" y="11" width="2" height="1" fill="#0b0a10"/><rect x="79" y="11" width="2" height="1" fill="#d9cfb4"/><rect x="81" y="11" width="6" height="1" fill="#86302f"/><rect x="87" y="11" width="6" height="1" fill="#d9cfb4"/><rect x="93" y="11" width="1" height="1" fill="#0b0a10"/><rect x="99" y="11" width="1" height="1" fill="#0b0a10"/><rect x="100" y="11" width="1" height="1" fill="#4a3d57"/><rect x="101" y="11" width="2" height="1" fill="#2b2433"/><rect x="103" y="11" width="1" height="1" fill="#0b0a10"/><rect x="54" y="12" width="9" height="1" fill="#0b0a10"/><rect x="63" y="12" width="1" height="1" fill="#d9cfb4"/><rect x="64" y="12" width="1" height="1" fill="#0b0a10"/><rect x="65" y="12" width="1" height="1" fill="#191420"/><rect x="66" y="12" width="2" height="1" fill="#2b2433"/><rect x="68" y="12" width="1" height="1" fill="#4a3d57"/><rect x="69" y="12" width="3" height="1" fill="#2b2433"/><rect x="72" y="12" width="1" height="1" fill="#4a3d57"/><rect x="73" y="12" width="1" height="1" fill="#2b2433"/><rect x="74" y="12" width="1" height="1" fill="#4a3d57"/><rect x="75" y="12" width="2" height="1" fill="#0b0a10"/><rect x="77" y="12" width="2" height="1" fill="#d9cfb4"/><rect x="79" y="12" width="2" height="1" fill="#86302f"/><rect x="81" y="12" width="6" height="1" fill="#5c1a22"/><rect x="87" y="12" width="5" height="1" fill="#86302f"/><rect x="92" y="12" width="2" height="1" fill="#d9cfb4"/><rect x="94" y="12" width="2" height="1" fill="#0b0a10"/><rect x="98" y="12" width="1" height="1" fill="#0b0a10"/><rect x="99" y="12" width="2" height="1" fill="#4a3d57"/><rect x="101" y="12" width="1" height="1" fill="#2b2433"/><rect x="102" y="12" width="1" height="1" fill="#191420"/><rect x="103" y="12" width="1" height="1" fill="#0b0a10"/><rect x="63" y="13" width="1" height="1" fill="#0b0a10"/><rect x="64" y="13" width="1" height="1" fill="#d9cfb4"/><rect x="65" y="13" width="1" height="1" fill="#0b0a10"/><rect x="66" y="13" width="1" height="1" fill="#191420"/><rect x="67" y="13" width="8" height="1" fill="#2b2433"/><rect x="75" y="13" width="2" height="1" fill="#d9cfb4"/><rect x="77" y="13" width="2" height="1" fill="#86302f"/><rect x="79" y="13" width="12" height="1" fill="#5c1a22"/><rect x="91" y="13" width="1" height="1" fill="#86302f"/><rect x="92" y="13" width="3" height="1" fill="#d9cfb4"/><rect x="95" y="13" width="1" height="1" fill="#191420"/><rect x="96" y="13" width="2" height="1" fill="#0b0a10"/><rect x="98" y="13" width="1" height="1" fill="#4a3d57"/><rect x="99" y="13" width="2" height="1" fill="#2b2433"/><rect x="101" y="13" width="1" height="1" fill="#191420"/><rect x="102" y="13" width="1" height="1" fill="#0b0a10"/><rect x="64" y="14" width="1" height="1" fill="#0b0a10"/><rect x="65" y="14" width="1" height="1" fill="#d9cfb4"/><rect x="66" y="14" width="1" height="1" fill="#0b0a10"/><rect x="67" y="14" width="1" height="1" fill="#191420"/><rect x="68" y="14" width="7" height="1" fill="#2b2433"/><rect x="75" y="14" width="2" height="1" fill="#86302f"/><rect x="77" y="14" width="14" height="1" fill="#5c1a22"/><rect x="91" y="14" width="1" height="1" fill="#86302f"/><rect x="92" y="14" width="2" height="1" fill="#d9cfb4"/><rect x="94" y="14" width="1" height="1" fill="#86302f"/><rect x="95" y="14" width="1" height="1" fill="#d9cfb4"/><rect x="96" y="14" width="1" height="1" fill="#191420"/><rect x="97" y="14" width="1" height="1" fill="#4a3d57"/><rect x="98" y="14" width="2" height="1" fill="#2b2433"/><rect x="100" y="14" width="1" height="1" fill="#191420"/><rect x="101" y="14" width="1" height="1" fill="#0b0a10"/><rect x="65" y="15" width="1" height="1" fill="#0b0a10"/><rect x="67" y="15" width="1" height="1" fill="#0b0a10"/><rect x="68" y="15" width="1" height="1" fill="#191420"/><rect x="69" y="15" width="1" height="1" fill="#4a3d57"/><rect x="70" y="15" width="3" height="1" fill="#2b2433"/><rect x="73" y="15" width="1" height="1" fill="#4a3d57"/><rect x="74" y="15" width="2" height="1" fill="#2b2433"/><rect x="76" y="15" width="15" height="1" fill="#5c1a22"/><rect x="91" y="15" width="1" height="1" fill="#86302f"/><rect x="92" y="15" width="1" height="1" fill="#d9cfb4"/><rect x="93" y="15" width="1" height="1" fill="#86302f"/><rect x="94" y="15" width="1" height="1" fill="#d9cfb4"/><rect x="95" y="15" width="1" height="1" fill="#86302f"/><rect x="96" y="15" width="2" height="1" fill="#d9cfb4"/><rect x="98" y="15" width="2" height="1" fill="#2b2433"/><rect x="100" y="15" width="1" height="1" fill="#0b0a10"/><rect x="68" y="16" width="1" height="1" fill="#0b0a10"/><rect x="69" y="16" width="8" height="1" fill="#2b2433"/><rect x="77" y="16" width="14" height="1" fill="#5c1a22"/><rect x="91" y="16" width="1" height="1" fill="#86302f"/><rect x="92" y="16" width="1" height="1" fill="#d9cfb4"/><rect x="93" y="16" width="1" height="1" fill="#86302f"/><rect x="94" y="16" width="1" height="1" fill="#d9cfb4"/><rect x="95" y="16" width="3" height="1" fill="#86302f"/><rect x="98" y="16" width="1" height="1" fill="#d9cfb4"/><rect x="99" y="16" width="1" height="1" fill="#2b2433"/><rect x="100" y="16" width="1" height="1" fill="#0b0a10"/><rect x="68" y="17" width="1" height="1" fill="#0b0a10"/><rect x="69" y="17" width="1" height="1" fill="#3a1218"/><rect x="70" y="17" width="9" height="1" fill="#2b2433"/><rect x="79" y="17" width="12" height="1" fill="#5c1a22"/><rect x="91" y="17" width="1" height="1" fill="#86302f"/><rect x="92" y="17" width="1" height="1" fill="#d9cfb4"/><rect x="93" y="17" width="2" height="1" fill="#86302f"/><rect x="95" y="17" width="1" height="1" fill="#d9cfb4"/><rect x="96" y="17" width="1" height="1" fill="#86302f"/><rect x="97" y="17" width="1" height="1" fill="#5c1a22"/><rect x="98" y="17" width="1" height="1" fill="#86302f"/><rect x="99" y="17" width="1" height="1" fill="#d9cfb4"/><rect x="100" y="17" width="1" height="1" fill="#0b0a10"/><rect x="67" y="18" width="1" height="1" fill="#0b0a10"/><rect x="68" y="18" width="2" height="1" fill="#3a1218"/><rect x="70" y="18" width="1" height="1" fill="#191420"/><rect x="71" y="18" width="3" height="1" fill="#2b2433"/><rect x="74" y="18" width="1" height="1" fill="#4a3d57"/><rect x="75" y="18" width="3" height="1" fill="#2b2433"/><rect x="78" y="18" width="1" height="1" fill="#4a3d57"/><rect x="79" y="18" width="1" height="1" fill="#2b2433"/><rect x="80" y="18" width="11" height="1" fill="#5c1a22"/><rect x="91" y="18" width="1" height="1" fill="#86302f"/><rect x="92" y="18" width="1" height="1" fill="#d9cfb4"/><rect x="93" y="18" width="2" height="1" fill="#86302f"/><rect x="95" y="18" width="1" height="1" fill="#d9cfb4"/><rect x="96" y="18" width="1" height="1" fill="#86302f"/><rect x="97" y="18" width="2" height="1" fill="#5c1a22"/><rect x="99" y="18" width="1" height="1" fill="#86302f"/><rect x="100" y="18" width="1" height="1" fill="#d9cfb4"/><rect x="101" y="18" width="1" height="1" fill="#0b0a10"/><rect x="66" y="19" width="1" height="1" fill="#0b0a10"/><rect x="67" y="19" width="1" height="1" fill="#3a1218"/><rect x="68" y="19" width="3" height="1" fill="#0b0a10"/><rect x="71" y="19" width="10" height="1" fill="#2b2433"/><rect x="81" y="19" width="10" height="1" fill="#5c1a22"/><rect x="91" y="19" width="1" height="1" fill="#86302f"/><rect x="92" y="19" width="1" height="1" fill="#d9cfb4"/><rect x="93" y="19" width="1" height="1" fill="#86302f"/><rect x="94" y="19" width="1" height="1" fill="#5c1a22"/><rect x="95" y="19" width="1" height="1" fill="#86302f"/><rect x="96" y="19" width="1" height="1" fill="#d9cfb4"/><rect x="97" y="19" width="1" height="1" fill="#86302f"/><rect x="98" y="19" width="2" height="1" fill="#0b0a10"/><rect x="100" y="19" width="1" height="1" fill="#86302f"/><rect x="101" y="19" width="1" height="1" fill="#d9cfb4"/><rect x="102" y="19" width="1" height="1" fill="#0b0a10"/><rect x="67" y="20" width="1" height="1" fill="#0b0a10"/><rect x="70" y="20" width="1" height="1" fill="#0b0a10"/><rect x="71" y="20" width="2" height="1" fill="#8a2a1e"/><rect x="73" y="20" width="12" height="1" fill="#2b2433"/><rect x="85" y="20" width="6" height="1" fill="#5c1a22"/><rect x="91" y="20" width="1" height="1" fill="#86302f"/><rect x="92" y="20" width="1" height="1" fill="#d9cfb4"/><rect x="93" y="20" width="1" height="1" fill="#86302f"/><rect x="94" y="20" width="1" height="1" fill="#5c1a22"/><rect x="95" y="20" width="1" height="1" fill="#86302f"/><rect x="96" y="20" width="1" height="1" fill="#d9cfb4"/><rect x="97" y="20" width="1" height="1" fill="#86302f"/><rect x="98" y="20" width="1" height="1" fill="#0b0a10"/><rect x="100" y="20" width="2" height="1" fill="#0b0a10"/><rect x="70" y="21" width="1" height="1" fill="#0b0a10"/><rect x="71" y="21" width="2" height="1" fill="#8a2a1e"/><rect x="73" y="21" width="1" height="1" fill="#5e1b14"/><rect x="74" y="21" width="2" height="1" fill="#8a2a1e"/><rect x="76" y="21" width="1" height="1" fill="#5e1b14"/><rect x="77" y="21" width="2" height="1" fill="#8a2a1e"/><rect x="79" y="21" width="1" height="1" fill="#5e1b14"/><rect x="80" y="21" width="2" height="1" fill="#8a2a1e"/><rect x="82" y="21" width="1" height="1" fill="#5e1b14"/><rect x="83" y="21" width="1" height="1" fill="#4a3d57"/><rect x="84" y="21" width="3" height="1" fill="#2b2433"/><rect x="87" y="21" width="1" height="1" fill="#4a3d57"/><rect x="88" y="21" width="3" height="1" fill="#5c1a22"/><rect x="91" y="21" width="1" height="1" fill="#86302f"/><rect x="92" y="21" width="1" height="1" fill="#d9cfb4"/><rect x="93" y="21" width="1" height="1" fill="#86302f"/><rect x="94" y="21" width="1" height="1" fill="#0b0a10"/><rect x="95" y="21" width="1" height="1" fill="#5c1a22"/><rect x="96" y="21" width="1" height="1" fill="#86302f"/><rect x="97" y="21" width="1" height="1" fill="#d9cfb4"/><rect x="98" y="21" width="1" height="1" fill="#0b0a10"/><rect x="71" y="22" width="1" height="1" fill="#0b0a10"/><rect x="72" y="22" width="1" height="1" fill="#8a2a1e"/><rect x="73" y="22" width="1" height="1" fill="#5e1b14"/><rect x="74" y="22" width="2" height="1" fill="#8a2a1e"/><rect x="76" y="22" width="1" height="1" fill="#5e1b14"/><rect x="77" y="22" width="2" height="1" fill="#8a2a1e"/><rect x="79" y="22" width="1" height="1" fill="#5e1b14"/><rect x="80" y="22" width="2" height="1" fill="#8a2a1e"/><rect x="82" y="22" width="1" height="1" fill="#5e1b14"/><rect x="83" y="22" width="2" height="1" fill="#8a2a1e"/><rect x="85" y="22" width="1" height="1" fill="#5e1b14"/><rect x="86" y="22" width="2" height="1" fill="#8a2a1e"/><rect x="88" y="22" width="1" height="1" fill="#5e1b14"/><rect x="89" y="22" width="2" height="1" fill="#5c1a22"/><rect x="91" y="22" width="1" height="1" fill="#86302f"/><rect x="92" y="22" width="1" height="1" fill="#d9cfb4"/><rect x="93" y="22" width="1" height="1" fill="#191420"/><rect x="94" y="22" width="3" height="1" fill="#0b0a10"/><rect x="97" y="22" width="1" height="1" fill="#d9cfb4"/><rect x="98" y="22" width="1" height="1" fill="#0b0a10"/><rect x="71" y="23" width="1" height="1" fill="#0b0a10"/><rect x="72" y="23" width="1" height="1" fill="#8a2a1e"/><rect x="73" y="23" width="1" height="1" fill="#5e1b14"/><rect x="74" y="23" width="2" height="1" fill="#8a2a1e"/><rect x="76" y="23" width="1" height="1" fill="#0b0a10"/><rect x="77" y="23" width="2" height="1" fill="#8a2a1e"/><rect x="79" y="23" width="1" height="1" fill="#5e1b14"/><rect x="80" y="23" width="2" height="1" fill="#8a2a1e"/><rect x="82" y="23" width="1" height="1" fill="#5e1b14"/><rect x="83" y="23" width="2" height="1" fill="#8a2a1e"/><rect x="85" y="23" width="1" height="1" fill="#5e1b14"/><rect x="86" y="23" width="2" height="1" fill="#8a2a1e"/><rect x="88" y="23" width="1" height="1" fill="#5e1b14"/><rect x="89" y="23" width="1" height="1" fill="#8a2a1e"/><rect x="90" y="23" width="1" height="1" fill="#5c1a22"/><rect x="91" y="23" width="1" height="1" fill="#86302f"/><rect x="92" y="23" width="1" height="1" fill="#d9cfb4"/><rect x="93" y="23" width="1" height="1" fill="#0b0a10"/><rect x="97" y="23" width="1" height="1" fill="#0b0a10"/><rect x="71" y="24" width="1" height="1" fill="#0b0a10"/><rect x="72" y="24" width="1" height="1" fill="#4a3d57"/><rect x="73" y="24" width="1" height="1" fill="#5e1b14"/><rect x="74" y="24" width="2" height="1" fill="#8a2a1e"/><rect x="76" y="24" width="10" height="1" fill="#0b0a10"/><rect x="86" y="24" width="2" height="1" fill="#8a2a1e"/><rect x="88" y="24" width="1" height="1" fill="#5e1b14"/><rect x="89" y="24" width="2" height="1" fill="#8a2a1e"/><rect x="91" y="24" width="1" height="1" fill="#86302f"/><rect x="92" y="24" width="1" height="1" fill="#d9cfb4"/><rect x="93" y="24" width="1" height="1" fill="#0b0a10"/><rect x="70" y="25" width="1" height="1" fill="#0b0a10"/><rect x="71" y="25" width="1" height="1" fill="#4a3d57"/><rect x="72" y="25" width="3" height="1" fill="#2b2433"/><rect x="75" y="25" width="1" height="1" fill="#0b0a10"/><rect x="84" y="25" width="1" height="1" fill="#0b0a10"/><rect x="85" y="25" width="1" height="1" fill="#4a3d57"/><rect x="86" y="25" width="5" height="1" fill="#2b2433"/><rect x="91" y="25" width="2" height="1" fill="#0b0a10"/><rect x="70" y="26" width="1" height="1" fill="#0b0a10"/><rect x="71" y="26" width="3" height="1" fill="#2b2433"/><rect x="74" y="26" width="1" height="1" fill="#191420"/><rect x="75" y="26" width="1" height="1" fill="#0b0a10"/><rect x="84" y="26" width="1" height="1" fill="#0b0a10"/><rect x="85" y="26" width="6" height="1" fill="#2b2433"/><rect x="91" y="26" width="1" height="1" fill="#0b0a10"/><rect x="69" y="27" width="1" height="1" fill="#0b0a10"/><rect x="70" y="27" width="1" height="1" fill="#4a3d57"/><rect x="71" y="27" width="3" height="1" fill="#191420"/><rect x="74" y="27" width="1" height="1" fill="#0b0a10"/><rect x="84" y="27" width="1" height="1" fill="#0b0a10"/><rect x="85" y="27" width="6" height="1" fill="#191420"/><rect x="91" y="27" width="1" height="1" fill="#0b0a10"/><rect x="69" y="28" width="5" height="1" fill="#0b0a10"/><rect x="84" y="28" width="7" height="1" fill="#0b0a10"/><rect x="68" y="29" width="1" height="1" fill="#0b0a10"/><rect x="69" y="29" width="1" height="1" fill="#d9cfb4"/><rect x="70" y="29" width="1" height="1" fill="#0b0a10"/><rect x="71" y="29" width="1" height="1" fill="#d9cfb4"/><rect x="72" y="29" width="1" height="1" fill="#0b0a10"/><rect x="73" y="29" width="1" height="1" fill="#d9cfb4"/><rect x="74" y="29" width="1" height="1" fill="#0b0a10"/><rect x="83" y="29" width="1" height="1" fill="#0b0a10"/><rect x="84" y="29" width="1" height="1" fill="#d9cfb4"/><rect x="85" y="29" width="1" height="1" fill="#0b0a10"/><rect x="86" y="29" width="1" height="1" fill="#d9cfb4"/><rect x="87" y="29" width="1" height="1" fill="#0b0a10"/><rect x="88" y="29" width="1" height="1" fill="#d9cfb4"/><rect x="89" y="29" width="1" height="1" fill="#0b0a10"/></svg>